<svg width="264" height="32" viewBox="0 0 264 32" fill="none" xmlns="http://www.w3.org/2000/svg">
<path fill-rule="evenodd" clip-rule="evenodd" d="M28.2024 0.454102H20.1632V19.7962C20.1632 20.8657 19.9082 21.8191 19.3983 22.6566C18.8884 23.494 18.1778 24.1499 17.2664 24.6241C16.3659 25.0983 15.3136 25.3354 14.1093 25.3354C12.9051 25.3354 11.8473 25.0983 10.9359 24.6241C10.0246 24.1499 9.314 23.494 8.80409 22.6566C8.30503 21.8191 8.0555 20.8657 8.0555 19.7962V0.454102H0V20.4469C0 22.7575 0.585854 24.7704 1.75756 26.4857C2.92927 28.1908 4.57292 29.5126 6.6885 30.4509C8.80409 31.3792 11.2777 31.8433 14.1093 31.8433C16.9084 31.8433 19.3657 31.3792 21.4813 30.4509C22.913 29.8159 24.0662 29.1745 25.0705 28.1883C23.9913 27.2173 23.1063 25.9468 22.3377 24.6241C20.9599 22.253 20.2968 19.3218 20.2968 15.9215C20.2968 12.5112 20.9382 9.56174 22.3377 7.19065C24.935 2.79028 28.2024 1.63875 28.2024 1.63875V0.454102Z" fill="#FF8800"/>
<path d="M43.3412 11.6537H51.4781C51.2828 9.79715 50.7783 8.14748 49.9646 6.70464C49.1509 5.26181 48.0931 4.04599 46.7912 3.05719C45.4893 2.05831 43.9813 1.30158 42.2671 0.787002C40.553 0.262334 38.6869 0 36.669 0C33.7595 0 31.1274 0.593922 28.7728 1.78177C28.7304 1.80313 28.6882 1.82468 28.646 1.84642C26.2592 3.07738 24.366 4.8784 22.9665 7.24949C21.567 9.62058 20.8672 12.5113 20.8672 15.9216C20.8672 19.3219 21.5561 22.2075 22.934 24.5786C23.7026 25.9014 24.6265 27.0482 25.7058 28.0193C26.5612 28.7889 27.5141 29.4481 28.5647 29.9968C30.9515 31.2278 33.6529 31.8433 36.669 31.8433C38.9581 31.8433 40.9869 31.5204 42.7554 30.8746C44.5346 30.2289 46.0426 29.3612 47.2795 28.2715C48.5163 27.1717 49.4873 25.9559 50.1924 24.624C50.9085 23.2922 51.337 21.9402 51.4781 20.568L43.3412 20.5226C43.2002 21.2692 42.9452 21.9402 42.5763 22.5355C42.2183 23.1207 41.7572 23.6201 41.1931 24.0338C40.6398 24.4374 39.9942 24.7451 39.2565 24.957C38.5296 25.1689 37.7213 25.2748 36.8317 25.2748C35.2477 25.2748 33.8753 24.9267 32.7145 24.2305C31.5645 23.5243 30.6694 22.48 30.0293 21.0977C29.4 19.7053 29.0854 17.9799 29.0854 15.9216C29.0854 13.944 29.3946 12.259 30.013 10.8667C30.6423 9.47428 31.5373 8.40981 32.6982 7.67326C33.8699 6.9367 35.264 6.56843 36.8805 6.56843C37.7919 6.56843 38.6218 6.6895 39.3704 6.93166C40.1299 7.16372 40.7862 7.50173 41.3395 7.94568C41.8928 8.38963 42.3377 8.92439 42.674 9.54995C43.0103 10.1755 43.2327 10.8768 43.3412 11.6537Z" fill="#606060"/>
<line x1="61.2183" y1="31.8457" x2="61.2183" y2="9.61006" stroke="#454545" stroke-width="3"/>
<path d="M82.9521 9.90771H88.2092V23.9656C88.2092 25.5903 87.8225 27.0056 87.0492 28.2117C86.2759 29.4107 85.1975 30.3401 83.8141 30.9999C82.4307 31.6526 80.8237 31.9789 78.9933 31.9789C77.1417 31.9789 75.5241 31.6526 74.1406 30.9999C72.7572 30.3401 71.6824 29.4107 70.9162 28.2117C70.15 27.0056 69.7668 25.5903 69.7668 23.9656V9.90771H75.0346V23.508C75.0346 24.26 75.1977 24.9305 75.5241 25.5193C75.8575 26.1082 76.3222 26.5693 76.9182 26.9028C77.5141 27.2362 78.2058 27.4029 78.9933 27.4029C79.7808 27.4029 80.469 27.2362 81.0579 26.9028C81.6538 26.5693 82.1185 26.1082 82.4519 25.5193C82.7854 24.9305 82.9521 24.26 82.9521 23.508V9.90771Z" fill="#FF8800"/>
<path d="M110.06 9.90771V31.7022H105.59L96.9169 19.1236H96.7785V31.7022H91.5108V9.90771H96.0443L104.622 22.4651H104.803V9.90771H110.06Z" fill="#FF8800"/>
<path d="M118.64 9.90771V31.7022H113.372V9.90771H118.64Z" fill="#FF8800"/>
<path d="M121.234 14.1857V9.90771H139.655V14.1857H133.046V31.7022H127.853V14.1857H121.234Z" fill="#FF8800"/>
<path d="M142.227 31.7022V9.90771H157.424V14.1857H147.495V18.6553H156.647V22.944H147.495V27.4242H157.424V31.7022H142.227Z" fill="#FF8800"/>
<path d="M168.779 31.7022H160.723V9.90771H168.768C170.989 9.90771 172.901 10.344 174.504 11.2167C176.114 12.0822 177.356 13.3308 178.229 14.9626C179.101 16.5873 179.538 18.5312 179.538 20.7943C179.538 23.0646 179.101 25.0156 178.229 26.6474C177.363 28.2791 176.125 29.5313 174.515 30.4039C172.904 31.2695 170.992 31.7022 168.779 31.7022ZM165.991 27.2114H168.576C169.797 27.2114 170.829 27.0056 171.673 26.5941C172.525 26.1756 173.167 25.498 173.599 24.5616C174.039 23.618 174.259 22.3622 174.259 20.7943C174.259 19.2264 174.039 17.9778 173.599 17.0484C173.16 16.1119 172.51 15.4379 171.652 15.0264C170.801 14.6079 169.751 14.3986 168.502 14.3986H165.991V27.2114Z" fill="#FF8800"/>
<path d="M205.569 17.8036H200.248C200.177 17.2573 200.031 16.7643 199.811 16.3244C199.591 15.8845 199.301 15.5085 198.939 15.1964C198.577 14.8842 198.148 14.6465 197.651 14.4833C197.162 14.3131 196.619 14.2279 196.023 14.2279C194.966 14.2279 194.054 14.4869 193.288 15.0048C192.529 15.5227 191.943 16.2712 191.532 17.2502C191.128 18.2293 190.925 19.4141 190.925 20.8046C190.925 22.2519 191.131 23.4651 191.543 24.4441C191.961 25.4161 192.547 26.1504 193.299 26.647C194.058 27.1365 194.955 27.3813 195.991 27.3813C196.573 27.3813 197.101 27.3068 197.577 27.1578C198.059 27.0088 198.481 26.7924 198.843 26.5086C199.212 26.2178 199.513 25.8666 199.748 25.4551C199.989 25.0365 200.155 24.5647 200.248 24.0397L205.569 24.0717C205.476 25.0365 205.196 25.9872 204.728 26.9237C204.267 27.8602 203.632 28.7151 202.823 29.4884C202.014 30.2546 201.028 30.8647 199.865 31.3188C198.708 31.7728 197.381 31.9998 195.885 31.9998C193.912 31.9998 192.146 31.5671 190.585 30.7015C189.031 29.8289 187.804 28.559 186.903 26.8918C186.002 25.2245 185.551 23.1955 185.551 20.8046C185.551 18.4066 186.009 16.3741 186.924 14.7068C187.839 13.0396 189.077 11.7732 190.638 10.9077C192.199 10.0421 193.948 9.60938 195.885 9.60938C197.204 9.60938 198.424 9.79383 199.545 10.1628C200.666 10.5246 201.652 11.0567 202.504 11.759C203.355 12.4543 204.047 13.3092 204.579 14.3237C205.111 15.3382 205.441 16.4982 205.569 17.8036Z" fill="#454545"/>
<path d="M213.851 9.90735V31.7019H208.583V9.90735H213.851Z" fill="#454545"/>
<path d="M222.106 9.90735L226.98 25.8701H227.161L232.035 9.90735H237.93L230.577 31.7019H223.564L216.21 9.90735H222.106Z" fill="#454545"/>
<path d="M245.545 9.90735V31.7019H240.277V9.90735H245.545Z" fill="#454545"/>
<path d="M248.852 31.7019V9.90735H254.119V27.4238H263.186V31.7019H248.852Z" fill="#454545"/>
</svg>
