<svg width="320" height="97" viewBox="0 0 320 97" fill="none" xmlns="http://www.w3.org/2000/svg">
<path fill-rule="evenodd" clip-rule="evenodd" d="M66.4246 11.2876H47.4899V56.8436C47.4899 59.3626 46.8894 61.6083 45.6885 63.5808C44.4875 65.5532 42.8138 67.0979 40.6673 68.2148C38.5464 69.3317 36.0678 69.8902 33.2315 69.8902C30.3951 69.8902 27.9037 69.3317 25.7572 68.2148C23.6108 67.0979 21.9371 65.5532 20.7361 63.5808C19.5607 61.6083 18.973 59.3626 18.973 56.8436V11.2876H0V58.3764C0 63.8184 1.37985 68.5594 4.13956 72.5993C6.89926 76.6154 10.7705 79.7286 15.7533 81.9386C20.7361 84.1249 26.5622 85.2181 33.2315 85.2181C39.8241 85.2181 45.6118 84.1249 50.5946 81.9386C53.9665 80.443 56.6826 78.9323 59.0482 76.6096C56.5063 74.3225 54.422 71.3302 52.6116 68.2148C49.3664 62.6302 47.8046 55.7264 47.8046 47.7178C47.8046 39.6855 49.3153 32.7387 52.6116 27.1541C58.7291 16.79 66.4246 14.0778 66.4246 14.0778V11.2876Z" fill="#FF8800"/>
<path d="M102.081 37.6659H121.246C120.786 33.2933 119.598 29.4079 117.681 26.0096C115.765 22.6113 113.273 19.7477 110.207 17.4188C107.141 15.0662 103.589 13.2838 99.5514 12.0719C95.514 10.8361 91.119 10.2183 86.3661 10.2183C79.5134 10.2183 73.3142 11.6171 67.7684 14.4148C67.6686 14.4651 67.5691 14.5159 67.4698 14.5671C61.8482 17.4664 57.3892 21.7083 54.0929 27.2929C50.7966 32.8774 49.1484 39.6859 49.1484 47.7182C49.1484 55.7267 50.771 62.5233 54.0163 68.1079C55.8266 71.2233 58.0028 73.9245 60.5447 76.2116C62.5594 78.0243 64.8039 79.5769 67.2782 80.8693C72.8998 83.7685 79.2624 85.2181 86.3661 85.2181C91.7578 85.2181 96.5362 84.4577 100.701 82.9368C104.892 81.4159 108.444 79.3721 111.357 76.8056C114.27 74.2153 116.557 71.3517 118.218 68.2148C119.904 65.078 120.914 61.8936 121.246 58.6616L102.081 58.5547C101.749 60.3132 101.148 61.8936 100.28 63.2956C99.4364 64.674 98.3504 65.8503 97.0217 66.8246C95.7185 67.7752 94.1981 68.5 92.4605 68.9991C90.7484 69.4981 88.8448 69.7476 86.7494 69.7476C83.0187 69.7476 79.7863 68.9278 77.0521 67.288C74.3435 65.6245 72.2354 63.1649 70.7278 59.9093C69.2457 56.6298 68.5047 52.5661 68.5047 47.7182C68.5047 43.0604 69.233 39.0918 70.6895 35.8123C72.1715 32.5329 74.2796 30.0257 77.0138 28.291C79.7735 26.5562 83.057 25.6888 86.8644 25.6888C89.0108 25.6888 90.9656 25.9739 92.7288 26.5443C94.5175 27.0909 96.0634 27.887 97.3666 28.9326C98.6698 29.9782 99.7175 31.2377 100.51 32.7111C101.302 34.1845 101.826 35.8361 102.081 37.6659Z" fill="#454545"/>
<path d="M162.424 11.0909H170.844V33.608C170.844 36.2102 170.225 38.4773 168.986 40.4091C167.748 42.3295 166.021 43.8182 163.805 44.875C161.589 45.9205 159.015 46.4432 156.083 46.4432C153.117 46.4432 150.526 45.9205 148.31 44.875C146.094 43.8182 144.373 42.3295 143.146 40.4091C141.918 38.4773 141.305 36.2102 141.305 33.608V11.0909H149.742V32.875C149.742 34.0795 150.004 35.1534 150.526 36.0966C151.06 37.0398 151.805 37.7784 152.759 38.3125C153.714 38.8466 154.822 39.1136 156.083 39.1136C157.344 39.1136 158.447 38.8466 159.39 38.3125C160.344 37.7784 161.089 37.0398 161.623 36.0966C162.157 35.1534 162.424 34.0795 162.424 32.875V11.0909ZM205.843 11.0909V46H198.684L184.792 25.8523H184.57V46H176.133V11.0909H183.394L197.133 31.2045H197.423V11.0909H205.843ZM219.586 11.0909V46H211.148V11.0909H219.586ZM223.741 17.9432V11.0909H253.246V17.9432H242.661V46H234.343V17.9432H223.741ZM257.367 46V11.0909H281.708V17.9432H265.805V25.1023H280.464V31.9716H265.805V39.1477H281.708V46H257.367ZM299.896 46H286.992V11.0909H299.879C303.435 11.0909 306.498 11.7898 309.066 13.1875C311.646 14.5739 313.634 16.5739 315.032 19.1875C316.43 21.7898 317.129 24.9034 317.129 28.5284C317.129 32.1648 316.43 35.2898 315.032 37.9034C313.646 40.517 311.663 42.5227 309.083 43.9205C306.504 45.3068 303.441 46 299.896 46ZM295.43 38.8068H299.572C301.526 38.8068 303.18 38.4773 304.532 37.8182C305.896 37.1477 306.924 36.0625 307.617 34.5625C308.322 33.0511 308.674 31.0398 308.674 28.5284C308.674 26.017 308.322 24.017 307.617 22.5284C306.913 21.0284 305.873 19.9489 304.498 19.2898C303.134 18.6193 301.452 18.2841 299.452 18.2841H295.43V38.8068Z" fill="#FF8800"/>
<path d="M172.992 62.2445H164.469C164.356 61.3695 164.123 60.5797 163.771 59.8752C163.418 59.1706 162.952 58.5684 162.373 58.0684C161.793 57.5684 161.106 57.1877 160.31 56.9263C159.526 56.6536 158.657 56.5172 157.702 56.5172C156.009 56.5172 154.549 56.932 153.322 57.7615C152.106 58.5911 151.168 59.7899 150.509 61.3581C149.861 62.9263 149.538 64.824 149.538 67.0513C149.538 69.3695 149.867 71.3127 150.526 72.8809C151.197 74.4377 152.134 75.6138 153.339 76.4093C154.555 77.1934 155.992 77.5854 157.651 77.5854C158.583 77.5854 159.43 77.4661 160.191 77.2274C160.964 76.9888 161.64 76.6422 162.219 76.1877C162.81 75.7218 163.293 75.1593 163.668 74.5002C164.055 73.8297 164.322 73.074 164.469 72.2331L172.992 72.2843C172.844 73.8297 172.396 75.3524 171.646 76.8524C170.907 78.3525 169.89 79.7218 168.594 80.9604C167.299 82.1877 165.719 83.165 163.856 83.8922C162.004 84.6195 159.879 84.9831 157.481 84.9831C154.322 84.9831 151.492 84.29 148.992 82.9036C146.504 81.5059 144.538 79.4718 143.094 76.8013C141.651 74.1309 140.93 70.8809 140.93 67.0513C140.93 63.2104 141.663 59.9547 143.129 57.2843C144.594 54.6138 146.577 52.5854 149.077 51.199C151.577 49.8127 154.379 49.1195 157.481 49.1195C159.594 49.1195 161.549 49.4149 163.344 50.0059C165.14 50.5854 166.719 51.4377 168.083 52.5627C169.447 53.6763 170.555 55.0456 171.407 56.6706C172.259 58.2956 172.788 60.1536 172.992 62.2445ZM186.258 49.5968V84.5059H177.82V49.5968H186.258ZM199.481 49.5968L207.288 75.1649H207.577L215.384 49.5968H224.827L213.049 84.5059H201.816L190.038 49.5968H199.481ZM237.023 49.5968V84.5059H228.586V49.5968H237.023ZM242.32 84.5059V49.5968H250.758V77.6536H265.28V84.5059H242.32Z" fill="#454545"/>
<path d="M133.831 10.9971L133.831 84.506" stroke="#454545" stroke-width="5"/>
</svg>
