<svg width="386" height="86" viewBox="0 0 386 86" fill="none" xmlns="http://www.w3.org/2000/svg">
<path fill-rule="evenodd" clip-rule="evenodd" d="M66.9389 11.2876H47.8576V56.8436C47.8576 59.3626 47.2525 61.6083 46.0422 63.5808C44.8319 65.5532 43.1453 67.0979 40.9822 68.2148C38.8449 69.3317 36.3471 69.8902 33.4888 69.8902C30.6304 69.8902 28.1197 69.3317 25.9567 68.2148C23.7936 67.0979 22.107 65.5532 20.8967 63.5808C19.7121 61.6083 19.1199 59.3626 19.1199 56.8436V11.2876H0V58.3764C0 63.8184 1.39054 68.5594 4.17161 72.5993C6.95268 76.6154 10.8539 79.7286 15.8753 81.9386C20.8967 84.1249 26.7678 85.2181 33.4888 85.2181C40.1324 85.2181 45.965 84.1249 50.9863 81.9386C54.3844 80.443 57.1215 78.9323 59.5054 76.6096C56.9438 74.3225 54.8434 71.3302 53.019 68.2148C49.7487 62.6302 48.1748 55.7264 48.1748 47.7178C48.1748 39.6855 49.6972 32.7387 53.019 27.1541C59.1838 16.79 66.9389 14.0778 66.9389 14.0778V11.2876Z" fill="#FF8800"/>
<path d="M102.872 37.6659H122.185C121.721 33.2933 120.524 29.4079 118.592 26.0096C116.661 22.6113 114.15 19.7477 111.06 17.4188C107.97 15.0662 104.391 13.2838 100.322 12.0719C96.2537 10.8361 91.8245 10.2183 87.0349 10.2183C80.1292 10.2183 73.8819 11.6171 68.2931 14.4148C68.1926 14.4651 68.0924 14.5159 67.9923 14.5671C62.3271 17.4664 57.8336 21.7083 54.5118 27.2929C51.19 32.8774 49.5291 39.6859 49.5291 47.7182C49.5291 55.7267 51.1642 62.5233 54.4346 68.1079C56.2589 71.2233 58.4519 73.9245 61.0135 76.2116C63.0438 78.0243 65.3057 79.5769 67.7992 80.8693C73.4643 83.7685 79.8762 85.2181 87.0349 85.2181C92.4683 85.2181 97.2837 84.4577 101.481 82.9368C105.704 81.4159 109.283 79.3721 112.219 76.8056C115.155 74.2153 117.459 71.3517 119.133 68.2148C120.833 65.078 121.85 61.8936 122.185 58.6616L102.872 58.5547C102.537 60.3132 101.932 61.8936 101.056 63.2956C100.206 64.674 99.112 65.8503 97.7729 66.8246C96.4597 67.7752 94.9275 68.5 93.1764 68.9991C91.4512 69.4981 89.5327 69.7476 87.4212 69.7476C83.6616 69.7476 80.4041 68.9278 77.6488 67.288C74.9192 65.6245 72.7948 63.1649 71.2755 59.9093C69.782 56.6298 69.0352 52.5661 69.0352 47.7182C69.0352 43.0604 69.7691 39.0918 71.2369 35.8123C72.7304 32.5329 74.8548 30.0257 77.6102 28.291C80.3912 26.5562 83.7002 25.6888 87.537 25.6888C89.7001 25.6888 91.67 25.9739 93.4468 26.5443C95.2494 27.0909 96.8073 27.887 98.1206 28.9326C99.4339 29.9782 100.49 31.2377 101.288 32.7111C102.086 34.1845 102.614 35.8361 102.872 37.6659Z" fill="#454545"/>
<path d="M163.498 11.0909H171.918V33.608C171.918 36.2102 171.299 38.4773 170.06 40.4091C168.822 42.3295 167.094 43.8182 164.878 44.875C162.662 45.9205 160.089 46.4432 157.157 46.4432C154.191 46.4432 151.6 45.9205 149.384 44.875C147.168 43.8182 145.447 42.3295 144.219 40.4091C142.992 38.4773 142.378 36.2102 142.378 33.608V11.0909H150.816V32.875C150.816 34.0795 151.077 35.1534 151.6 36.0966C152.134 37.0398 152.878 37.7784 153.833 38.3125C154.787 38.8466 155.895 39.1136 157.157 39.1136C158.418 39.1136 159.52 38.8466 160.464 38.3125C161.418 37.7784 162.162 37.0398 162.697 36.0966C163.231 35.1534 163.498 34.0795 163.498 32.875V11.0909ZM206.917 11.0909V46H199.758L185.866 25.8523H185.644V46H177.206V11.0909H184.468L198.206 31.2045H198.496V11.0909H206.917ZM220.66 11.0909V46H212.222V11.0909H220.66ZM224.814 17.9432V11.0909H254.32V17.9432H243.735V46H235.417V17.9432H224.814ZM258.441 46V11.0909H282.782V17.9432H266.878V25.1023H281.537V31.9716H266.878V39.1477H282.782V46H258.441ZM300.969 46H288.066V11.0909H300.952C304.509 11.0909 307.572 11.7898 310.14 13.1875C312.719 14.5739 314.708 16.5739 316.106 19.1875C317.503 21.7898 318.202 24.9034 318.202 28.5284C318.202 32.1648 317.503 35.2898 316.106 37.9034C314.719 40.517 312.736 42.5227 310.157 43.9205C307.577 45.3068 304.515 46 300.969 46ZM296.503 38.8068H300.645C302.6 38.8068 304.253 38.4773 305.606 37.8182C306.969 37.1477 307.998 36.0625 308.691 34.5625C309.395 33.0511 309.748 31.0398 309.748 28.5284C309.748 26.017 309.395 24.017 308.691 22.5284C307.986 21.0284 306.947 19.9489 305.572 19.2898C304.208 18.6193 302.526 18.2841 300.526 18.2841H296.503V38.8068Z" fill="#FF8800"/>
<path d="M174.066 62.2445H165.543C165.43 61.3695 165.197 60.5797 164.844 59.8752C164.492 59.1706 164.026 58.5684 163.447 58.0684C162.867 57.5684 162.18 57.1877 161.384 56.9263C160.6 56.6536 159.731 56.5172 158.776 56.5172C157.083 56.5172 155.623 56.932 154.395 57.7615C153.18 58.5911 152.242 59.7899 151.583 61.3581C150.935 62.9263 150.611 64.824 150.611 67.0513C150.611 69.3695 150.941 71.3127 151.6 72.8809C152.27 74.4377 153.208 75.6138 154.412 76.4093C155.628 77.1934 157.066 77.5854 158.725 77.5854C159.657 77.5854 160.503 77.4661 161.265 77.2274C162.037 76.9888 162.714 76.6422 163.293 76.1877C163.884 75.7218 164.367 75.1593 164.742 74.5002C165.128 73.8297 165.395 73.074 165.543 72.2331L174.066 72.2843C173.918 73.8297 173.469 75.3524 172.719 76.8524C171.981 78.3525 170.964 79.7218 169.668 80.9604C168.373 82.1877 166.793 83.165 164.93 83.8922C163.077 84.6195 160.952 84.9831 158.555 84.9831C155.395 84.9831 152.566 84.29 150.066 82.9036C147.577 81.5059 145.611 79.4718 144.168 76.8013C142.725 74.1309 142.003 70.8809 142.003 67.0513C142.003 63.2104 142.736 59.9547 144.202 57.2843C145.668 54.6138 147.651 52.5854 150.151 51.199C152.651 49.8127 155.452 49.1195 158.555 49.1195C160.668 49.1195 162.623 49.4149 164.418 50.0059C166.214 50.5854 167.793 51.4377 169.157 52.5627C170.52 53.6763 171.628 55.0456 172.481 56.6706C173.333 58.2956 173.861 60.1536 174.066 62.2445ZM187.331 49.5968V84.5059H178.894V49.5968H187.331ZM200.555 49.5968L208.361 75.1649H208.651L216.458 49.5968H225.901L214.123 84.5059H202.89L191.111 49.5968H200.555ZM238.097 49.5968V84.5059H229.66V49.5968H238.097ZM243.394 84.5059V49.5968H251.831V77.6536H266.354V84.5059H243.394Z" fill="#454545"/>
<path d="M134.867 10.9971L134.867 84.506" stroke="#454545" stroke-width="5"/>
<path d="M286.769 68.123C286.64 67.6457 286.451 67.2253 286.201 66.8616C285.951 66.4904 285.644 66.176 285.281 65.9185C284.917 65.6609 284.5 65.4677 284.031 65.3389C283.561 65.2026 283.046 65.1344 282.485 65.1344C281.356 65.1344 280.379 65.4071 279.553 65.9526C278.735 66.498 278.103 67.2935 277.656 68.3389C277.209 69.3768 276.985 70.6382 276.985 72.123C276.985 73.6154 277.201 74.8882 277.633 75.9412C278.065 76.9942 278.69 77.7973 279.508 78.3503C280.326 78.9033 281.318 79.1798 282.485 79.1798C283.515 79.1798 284.387 79.0132 285.099 78.6798C285.818 78.3389 286.364 77.8579 286.735 77.2366C287.106 76.6154 287.292 75.8844 287.292 75.0435L288.337 75.1685H282.678V71.0662H292.712V74.1457C292.712 76.2291 292.269 78.0132 291.383 79.498C290.504 80.9829 289.292 82.123 287.746 82.9185C286.209 83.7139 284.44 84.1116 282.44 84.1116C280.22 84.1116 278.269 83.6306 276.587 82.6685C274.906 81.7063 273.595 80.3351 272.656 78.5548C271.716 76.7669 271.246 74.6457 271.246 72.1912C271.246 70.2821 271.531 68.5889 272.099 67.1116C272.667 65.6268 273.459 64.3692 274.474 63.3389C275.496 62.3086 276.678 61.5283 278.019 60.998C279.368 60.4677 280.818 60.2025 282.371 60.2025C283.72 60.2025 284.974 60.3957 286.133 60.7821C287.3 61.1685 288.33 61.7139 289.224 62.4185C290.125 63.123 290.856 63.9601 291.417 64.9298C291.978 65.8995 292.326 66.9639 292.462 68.123H286.769ZM296.028 83.7935V60.5207H305.641C307.384 60.5207 308.888 60.8351 310.153 61.4639C311.425 62.0851 312.407 62.9791 313.096 64.1457C313.785 65.3048 314.13 66.6798 314.13 68.2707C314.13 69.8844 313.778 71.2556 313.073 72.3844C312.369 73.5056 311.369 74.3616 310.073 74.9526C308.778 75.5359 307.244 75.8276 305.471 75.8276H299.391V71.3957H304.425C305.274 71.3957 305.982 71.2859 306.55 71.0662C307.126 70.8389 307.562 70.498 307.857 70.0435C308.153 69.5813 308.3 68.9904 308.3 68.2707C308.3 67.551 308.153 66.9563 307.857 66.4866C307.562 66.0094 307.126 65.6533 306.55 65.4185C305.975 65.176 305.266 65.0548 304.425 65.0548H301.653V83.7935H296.028ZM309.13 73.1571L314.925 83.7935H308.789L303.107 73.1571H309.13ZM339.181 72.1571C339.181 74.7177 338.689 76.8882 337.704 78.6685C336.719 80.4488 335.386 81.801 333.704 82.7253C332.03 83.6495 330.151 84.1116 328.068 84.1116C325.977 84.1116 324.094 83.6457 322.42 82.7139C320.746 81.7821 319.416 80.4298 318.431 78.6571C317.454 76.8768 316.965 74.7101 316.965 72.1571C316.965 69.5965 317.454 67.426 318.431 65.6457C319.416 63.8654 320.746 62.5132 322.42 61.5889C324.094 60.6647 325.977 60.2025 328.068 60.2025C330.151 60.2025 332.03 60.6647 333.704 61.5889C335.386 62.5132 336.719 63.8654 337.704 65.6457C338.689 67.426 339.181 69.5965 339.181 72.1571ZM333.431 72.1571C333.431 70.6419 333.215 69.3616 332.783 68.3162C332.359 67.2707 331.746 66.4791 330.943 65.9412C330.147 65.4033 329.189 65.1344 328.068 65.1344C326.954 65.1344 325.996 65.4033 325.193 65.9412C324.389 66.4791 323.772 67.2707 323.34 68.3162C322.916 69.3616 322.704 70.6419 322.704 72.1571C322.704 73.6722 322.916 74.9526 323.34 75.998C323.772 77.0435 324.389 77.8351 325.193 78.373C325.996 78.9109 326.954 79.1798 328.068 79.1798C329.189 79.1798 330.147 78.9109 330.943 78.373C331.746 77.8351 332.359 77.0435 332.783 75.998C333.215 74.9526 333.431 73.6722 333.431 72.1571ZM356.545 60.5207H362.158V75.5321C362.158 77.2669 361.746 78.7783 360.92 80.0662C360.094 81.3465 358.943 82.3389 357.465 83.0435C355.988 83.7404 354.272 84.0889 352.318 84.0889C350.34 84.0889 348.613 83.7404 347.136 83.0435C345.658 82.3389 344.511 81.3465 343.693 80.0662C342.874 78.7783 342.465 77.2669 342.465 75.5321V60.5207H348.09V75.0435C348.09 75.8465 348.264 76.5624 348.613 77.1912C348.969 77.82 349.465 78.3124 350.102 78.6685C350.738 79.0245 351.477 79.2026 352.318 79.2026C353.158 79.2026 353.893 79.0245 354.522 78.6685C355.158 78.3124 355.655 77.82 356.011 77.1912C356.367 76.5624 356.545 75.8465 356.545 75.0435V60.5207ZM365.684 83.7935V60.5207H375.298C377.04 60.5207 378.544 60.8616 379.809 61.5435C381.082 62.2177 382.063 63.1609 382.752 64.373C383.442 65.5776 383.786 66.9791 383.786 68.5776C383.786 70.1836 383.434 71.5889 382.729 72.7935C382.032 73.9904 381.036 74.9185 379.741 75.5776C378.445 76.2366 376.907 76.5662 375.127 76.5662H369.195V72.1344H374.082C374.93 72.1344 375.639 71.9866 376.207 71.6912C376.782 71.3957 377.218 70.9829 377.514 70.4526C377.809 69.9147 377.957 69.2897 377.957 68.5776C377.957 67.8579 377.809 67.2366 377.514 66.7139C377.218 66.1836 376.782 65.7745 376.207 65.4866C375.631 65.1988 374.923 65.0548 374.082 65.0548H371.309V83.7935H365.684Z" fill="#CFCFCF"/>
</svg>
